PathFileType	4	(X/Y/Z)	C:\Users\WrightLab\Desktop\Jo\P5V212.trc
DataRate	CameraRate	NumFrames	NumMarkers	Units	OrigDataRate	OrigDataStartFrame	OrigNumFrames
100.00	100.00	       13	19	mm	100.00	59	       469
Frame#	Time	Headset_Front			Headset_Back			Headset_Left			Headset_Right			Left_Shoulder			Right_Shoulder			Sternum			C7			Left Elbow			Right Elbow			Left Wrist			Right Wrist			Left ASIS			Right ASIS			S2			Left Knee			Right Knee			Left Ankle			Right Ankle			
		X1	Y1	Z1	X2	Y2	Z2	X3	Y3	Z3	X4	Y4	Z4	X5	Y5	Z5	X6	Y6	Z6	X7	Y7	Z7	X8	Y8	Z8	X9	Y9	Z9	X10	Y10	Z10	X11	Y11	Z11	X12	Y12	Z12	X13	Y13	Z13	X14	Y14	Z14	X15	Y15	Z15	X16	Y16	Z16	X17	Y17	Z17	X18	Y18	Z18	X19	Y19	Z19	

59	0.580	-455.25345	1654.18396	-949.63135										-348.19070	1313.75671	-1003.49609	-379.45535	1508.69434	-1215.65186							-52.19193	1219.50488	-1006.52197	-656.37524	1171.97449	-1069.63635	-103.35727	959.69470	-1013.21655	-589.83777	1052.41968	-878.83032	-211.98268	919.77820	-1002.50922	-479.16696	936.74731	-982.16803				-167.39674	480.60977	-1050.21484	-540.52222	472.46091	-1053.21118	-227.39305	66.99447	-1144.39941				
60	0.590	-454.88284	1654.36938	-949.47363	-331.41891	952.93396	-1278.87866							-346.69208	1312.93274	-1003.01593	-379.06854	1508.69739	-1214.51904							-51.90096	1219.88721	-1004.76312	-655.97998	1172.05994	-1070.06531	-103.06477	959.37018	-1011.57318	-589.77045	1052.49963	-878.00812	-211.82956	919.01855	-1002.64264	-478.41962	937.04547	-981.79639				-167.05217	480.78012	-1050.35620	-540.53308	472.45020	-1053.21436	-227.39305	66.99447	-1144.39941				
61	0.600	-454.58261	1654.44812	-949.16278	-331.18002	952.71405	-1278.10059							-345.70886	1312.76416	-1002.51624	-378.80835	1508.67566	-1214.18884										-656.10950	1172.22241	-1068.80933	-102.84557	959.45367	-1011.41028	-589.51843	1052.24048	-877.34528	-210.65575	918.67212	-1001.97723	-478.01031	937.32013	-981.16583				-165.81789	480.90341	-1050.46606	-540.72144	472.27896	-1053.36450	-227.39305	66.99447	-1144.39941				
62	0.610	-454.23221	1654.78430	-949.02759	-331.02704	952.77063	-1278.05505							-344.91522	1312.31287	-1001.75171	-378.53665	1508.58606	-1213.47522							-48.11309	1219.08081	-1003.48846	-655.62140	1172.05591	-1068.23999	-102.40419	959.38928	-1011.17792	-588.91815	1051.82837	-877.22894	-209.99292	918.95874	-1001.80566	-478.01031	937.32013	-981.16583				-166.09465	481.10052	-1050.35681	-540.73920	472.27390	-1053.37158	-227.39305	66.99447	-1144.39941				
63	0.620	-453.99078	1654.95911	-949.13879	-330.78546	953.02100	-1277.95703							-344.81320	1312.40564	-1001.24347	-378.28674	1508.61243	-1213.12512							-48.11309	1219.08081	-1003.48846	-655.63831	1172.37292	-1067.83630	-102.12672	959.16748	-1010.04059	-588.26398	1051.41504	-877.10840	-209.38982	918.83398	-1001.30011	-477.73962	937.52740	-980.19415				-165.69125	480.93921	-1050.40833	-540.80945	472.04926	-1053.32434	-227.39305	66.99447	-1144.39941				
64	0.630	-453.74667	1655.00793	-948.84540	-330.60294	953.08319	-1277.90417							-344.52930	1312.78613	-1000.59290	-378.07816	1508.67871	-1213.07861							-48.09314	1219.04504	-1002.68475	-655.44879	1172.68665	-1066.91528	-101.71237	959.04437	-1009.77545	-587.38812	1051.44543	-876.33405	-208.58321	919.57489	-1000.10712	-476.91238	937.64795	-980.16736				-165.63528	480.95355	-1050.38245	-540.80505	472.05173	-1053.32275	-227.39305	66.99447	-1144.39941				
65	0.640	-453.59253	1655.01611	-948.81055	-330.26529	953.31201	-1277.47034							-344.52930	1312.78613	-1000.59290	-377.71991	1508.74451	-1212.19385							-47.86333	1219.34302	-1001.23132	-654.70490	1172.19958	-1066.56445	-101.53905	959.44189	-1007.96393	-586.45282	1051.06592	-875.91400	-208.40752	919.45349	-999.78857	-476.91238	937.64795	-980.16736				-165.59894	480.96481	-1050.36621	-540.75177	472.26855	-1053.37622	-227.39305	66.99447	-1144.39941				
66	0.650	-453.42780	1655.01917	-948.77441	-329.92310	953.68976	-1277.25708							-344.36725	1312.98022	-1000.07709	-377.44092	1508.62158	-1211.27014							-47.83650	1219.34631	-1000.71368	-654.75146	1172.62158	-1065.93555	-101.20644	959.33270	-1007.68042	-585.78625	1050.66626	-875.22968	-207.86339	919.68854	-999.50897	-477.07584	937.55658	-979.81586				-165.34525	481.02737	-1050.12781	-540.69800	471.89651	-1052.53015	-227.39305	66.99447	-1144.39941				
67	0.660	-453.20209	1655.26001	-948.46405	-329.70660	954.01233	-1277.32080							-344.25571	1313.12097	-999.76630	-377.16818	1508.77600	-1210.84192							-47.67793	1219.59766	-1000.21613	-654.31323	1172.08435	-1065.31433	-100.95485	959.36749	-1007.48651	-585.08093	1050.50208	-874.86316	-207.75864	919.73657	-999.43457	-477.07584	937.55658	-979.81586				-165.72873	480.92468	-1049.86316	-540.64941	471.77448	-1052.22388	-227.39305	66.99447	-1144.39941				
68	0.670	-453.05194	1655.27759	-948.10419	-329.48022	954.08752	-1277.01892							-344.22891	1313.01953	-998.84778	-376.89374	1508.75281	-1210.21741							-47.61681	1219.66309	-999.67761	-653.88873	1172.92358	-1064.48389	-100.49059	959.54309	-1007.29822	-584.49414	1050.56152	-874.45282	-207.58569	919.78033	-999.30981	-476.63428	937.82428	-979.66901				-165.31294	481.02261	-1050.10950	-540.55725	471.84518	-1051.82776	-227.39305	66.99447	-1144.39941				
69	0.680	-452.98300	1655.15759	-947.59650	-329.37503	954.00751	-1276.66089							-344.02161	1313.31311	-998.47083	-376.50439	1509.09253	-1209.85205							-47.24393	1220.22876	-998.22662	-653.51776	1173.04907	-1064.12854	-100.14806	959.61139	-1007.04907	-578.49231	1049.85864	-872.67017	-207.32173	919.43030	-998.37854	-476.46985	937.93958	-979.44843				-165.74153	481.17798	-1049.27380	-540.74554	472.26486	-1051.15735	-227.39305	66.99447	-1144.39941				
70	0.690													-343.37494	1313.58972	-998.00452	-376.11368	1509.31934	-1209.56055							-45.76883	1219.51477	-997.38812	-653.23633	1173.09583	-1063.67590	-99.77946	959.67096	-1006.77502	-578.07721	1050.02661	-872.14227	-206.74646	919.37500	-998.03491	-476.62167	937.82977	-978.90393				-165.36598	481.01691	-1049.05261	-539.23639	471.35880	-1051.06873	-227.39305	66.99447	-1144.39941				
71	0.700													-343.18747	1313.84729	-997.61426	-375.65759	1509.36768	-1208.45166							-45.54917	1219.83228	-996.35126	-652.61298	1173.38843	-1062.84326	-99.44259	959.73480	-1006.53070	-575.68243	1048.60681	-870.25800	-206.05745	919.43707	-997.63690	-476.45828	937.92120	-979.25537				-165.71959	480.65179	-1048.43994	-539.06445	472.04816	-1050.29089	-227.39305	66.99447	-1144.39941				
